<svg width="16" height="16" viewBox="0 0 16 16" fill="none" xmlns="http://www.w3.org/2000/svg">
<path d="M14.0501 9.45L6.5501 1.95C5.3001 0.65 3.2501 0.65 1.9501 1.9C0.650098 3.15 0.650098 5.25 1.9501 6.5L2.0001 6.55L3.4001 8L4.1001 7.3L2.6501 5.85C1.8001 5 1.8001 3.55 2.6501 2.7C3.5001 1.85 4.9501 1.8 5.8001 2.65L5.8501 2.7L13.3001 10.15C14.2001 11 14.2001 12.45 13.3501 13.3C12.5001 14.2 11.0501 14.2 10.2001 13.35L10.1501 13.3L6.4501 9.6C5.9501 9.1 6.0001 8.3 6.4501 7.85C6.6898 7.63287 7.00167 7.51261 7.3251 7.51261C7.64852 7.51261 7.9604 7.63287 8.2001 7.85L10.2501 9.9L10.9501 9.2L8.8501 7.1C8.63724 6.8987 8.38664 6.74152 8.11275 6.63752C7.83886 6.53353 7.5471 6.48477 7.25427 6.49407C6.96145 6.50336 6.67337 6.57053 6.40662 6.69169C6.13988 6.81284 5.89976 6.9856 5.7001 7.2C4.9001 8.05 4.9001 9.4 5.7001 10.3L9.4501 14.05C10.7001 15.35 12.7501 15.35 14.0501 14.1C15.3501 12.85 15.3501 10.75 14.0501 9.45C14.0501 9.5 14.0501 9.45 14.0501 9.45Z" fill="#121417"/>
</svg>
